<svg id="Layer_1" data-name="Layer 1" xmlns="http://www.w3.org/2000/svg" viewBox="0 0 340 338.47"><defs><style>.cls-1{fill:#383838;}.cls-2{fill:#d14444;}.cls-3{fill:#fefefe;}</style></defs><title>pokeball</title><path class="cls-1" d="M161,10h17.6c.08.38.4.3.65.31,1.49,0,3,.2,4.45.31,3.8.27,7.58.75,11.33,1.36A159.23,159.23,0,0,1,261,38.38a163.68,163.68,0,0,1,19.31,15.73c3.32,3.15,6.47,6.49,9.52,9.92a159.49,159.49,0,0,1,37.06,74.89,154.66,154.66,0,0,1,2.85,24.55c0,.26-.12.62.3.72V170c-.42.11-.29.47-.29.73,0,3.57-.2,7.13-.48,10.69-.31,4-.74,7.95-1.35,11.89a160.62,160.62,0,0,1-7.05,28.17A158.62,158.62,0,0,1,307,250.84a160.64,160.64,0,0,1-19.93,26.54q-5.26,5.65-11,10.78a161.84,161.84,0,0,1-20.85,15.71,159.08,159.08,0,0,1-33.28,16,157.3,157.3,0,0,1-24,6.2c-3.51.61-7,1.14-10.58,1.5-2.57.27-5.13.54-7.72.64-.23,0-.5,0-.56.31h-18.4c-.08-.38-.4-.3-.64-.31a145.75,145.75,0,0,1-14.91-1.59,152.24,152.24,0,0,1-22.93-5.32,160.11,160.11,0,0,1-62.32-36.59,156.74,156.74,0,0,1-13.81-14.87,159.26,159.26,0,0,1-34.64-79.57c-.56-4.2-1-8.4-1.16-12.63,0-.25.07-.57-.31-.64V161.16c.34-.07.3-.34.3-.57.06-2.1.3-4.19.48-6.29a137.75,137.75,0,0,1,2-14.3A159.81,159.81,0,0,1,60.21,53.55a164.12,164.12,0,0,1,13.23-11.2,159,159,0,0,1,45.75-24.17A154.55,154.55,0,0,1,142,12.39c3.54-.61,7.09-1.14,10.66-1.5,2.6-.26,5.19-.53,7.8-.63C160.71,10.25,161,10.3,161,10ZM267.46,154.59q26,0,52.08,0c.7,0,.92-.14.83-.88-.49-3.83-1-7.66-1.7-11.46a148.54,148.54,0,0,0-12.39-37.93,151.06,151.06,0,0,0-36-47.59,150.75,150.75,0,0,0-93-37.95,152.39,152.39,0,0,0-28.48,1.29A145.79,145.79,0,0,0,120.31,27a151.68,151.68,0,0,0-96.4,103.33,145.41,145.41,0,0,0-4.33,23.05c-.13,1.25-.12,1.25,1.14,1.25q54.24,0,108.48,0a1.11,1.11,0,0,0,1.26-.85,41.49,41.49,0,0,1,8.91-14.29c11.41-11.83,25.33-16.69,41.49-13.6s27.12,12.7,33.43,27.76a1.33,1.33,0,0,0,1.49,1Q241.63,154.57,267.46,154.59ZM76,189q-27.55,0-55.12,0c-.66,0-.9.14-.78.82.58,3.62,1.15,7.24,1.93,10.83A151.79,151.79,0,0,0,73.7,285.38a147.8,147.8,0,0,0,23.8,16.1,149.65,149.65,0,0,0,32.79,13.17,156,156,0,0,0,16,3.44c3.27.52,6.56.89,9.86,1.18,3.08.28,6.16.52,9.24.58a153.07,153.07,0,0,0,22.95-1.07c3.43-.45,6.85-1,10.25-1.6a146.27,146.27,0,0,0,19.89-5.25,151.37,151.37,0,0,0,98-105.69,156.47,156.47,0,0,0,3.24-16.35c.13-.92-.13-.91-.82-.91q-52.44,0-104.88,0a1.11,1.11,0,0,0-1.19.71,43.56,43.56,0,0,1-12,15.11,44.54,44.54,0,0,1-27,10.09,42.5,42.5,0,0,1-15.17-2.17,44.44,44.44,0,0,1-26.51-22.88,1.33,1.33,0,0,0-1.42-.86Q103.35,189,76,189Zm96.31-55.52a36.46,36.46,0,1,0,36.55,36.58A36.45,36.45,0,0,0,172.3,133.48Z"/><path class="cls-2" d="M267.46,154.59q-25.84,0-51.68,0a1.33,1.33,0,0,1-1.49-1c-6.31-15.06-17.37-24.68-33.43-27.76s-30.08,1.77-41.49,13.6a41.49,41.49,0,0,0-8.91,14.29,1.11,1.11,0,0,1-1.26.85q-54.24,0-108.48,0c-1.26,0-1.27,0-1.14-1.25a145.41,145.41,0,0,1,4.33-23.05A151.68,151.68,0,0,1,120.31,27a145.79,145.79,0,0,1,28.53-6.88,152.39,152.39,0,0,1,28.48-1.29,151.53,151.53,0,0,1,129,85.54,148.54,148.54,0,0,1,12.39,37.93c.69,3.8,1.21,7.63,1.7,11.46.09.74-.13.88-.83.88Q293.5,154.57,267.46,154.59Z"/><path class="cls-3" d="M76,189q27.36,0,54.72,0a1.33,1.33,0,0,1,1.42.86,44.44,44.44,0,0,0,26.51,22.88,42.5,42.5,0,0,0,15.17,2.17,44.54,44.54,0,0,0,27-10.09,43.56,43.56,0,0,0,12-15.11A1.11,1.11,0,0,1,214,189q52.44,0,104.88,0c.69,0,.95,0,.82.91a156.47,156.47,0,0,1-3.24,16.35,151.62,151.62,0,0,1-98,105.69,146.27,146.27,0,0,1-19.89,5.25c-3.4.64-6.82,1.15-10.25,1.6a153.07,153.07,0,0,1-22.95,1.07c-3.08-.06-6.16-.3-9.24-.58-3.3-.29-6.59-.66-9.86-1.18a156,156,0,0,1-16-3.44A149.65,149.65,0,0,1,97.5,301.48a147.8,147.8,0,0,1-23.8-16.1A151.39,151.39,0,0,1,22,200.63c-.78-3.59-1.35-7.21-1.93-10.83-.12-.68.12-.82.78-.82Q48.44,189,76,189Z"/><path class="cls-3" d="M172.3,133.48A36.46,36.46,0,1,1,136,170.09,36.45,36.45,0,0,1,172.3,133.48Z"/></svg>